 http://www.shotpix.com/images/44409523009432076825.jpeg


Source: HDRip.720P.Xvid-SmY - Thanks
 
http://www.imdb.com/title/tt2040578/

Plot: Try to remain calm

General
Complete name                            : UFO 2012 HDRip x264 AAC-BiGKATS.mp4
Format                                   : MPEG-4
Format profile                           : Base Media
Codec ID                                 : isom
File size                                : 700 MiB
Duration                                 : 1h 39mn
Overall bit rate mode                    : Variable
Overall bit rate                         : 986 Kbps
Encoded date                             : UTC 2013-01-11 11:08:33
Tagged date                              : UTC 2013-01-11 11:08:33

Video
ID                                       : 1
Format                                   : AVC
Format/Info                              : Advanced Video Codec
Format profile                           : High@L4.1
Format settings, CABAC                   : Yes
Format settings, ReFrames                : 3 frames
Codec ID                                 : avc1
Codec ID/Info                            : Advanced Video Coding
Duration                                 : 1h 39mn
Bit rate mode                            : Variable
Bit rate                                 : 865 Kbps
Maximum bit rate                         : 40.0 Mbps
Width                                    : 720 pixels
Height                                   : 400 pixels
Display aspect ratio                     : 16:9
Frame rate mode                          : Constant
Frame rate                               : 23.976 fps
Color space                              : YUV
Chroma subsampling                       : 4:2:0
Bit depth                                : 8 bits
Scan type                                : Progressive
Bits/(Pixel*Frame)                       : 0.125
Stream size                              : 613 MiB (88%)
Writing library                          : x264 core 129 r2245 bc13772

Audio
ID                                       : 2
Format                                   : AAC
Format/Info                              : Advanced Audio Codec
Format profile                           : LC
Codec ID                                 : 40
Duration                                 : 1h 39mn
Bit rate mode                            : Variable
Bit rate                                 : 118 Kbps
Maximum bit rate                         : 163 Kbps
Channel(s)                               : 2 channels
Channel positions                        : Front: L R
Sampling rate                            : 48.0 KHz
Compression mode                         : Lossy
Stream size                              : 83.5 MiB (12%)
Language                                 : English
Encoded date                             : UTC 2013-01-11 11:09:06
Tagged date                              : UTC 2013-01-11 11:09:09


 
HTTP://www.shotpix.com/images/86070820816725875571.png 
http://www.shotpix.com/images/34581114982887879943.png
 
http://www.shotpix.com/images/19369496357401531233.png